<svg
  xmlns="http://www.w3.org/2000/svg"
  viewBox="0 0 250 250"
  fill="none"
>
  <rect width="250" height="250" rx="62.5" fill="#8FF361" />

  <g transform="matrix(1.357982 0 0 1.357982 36.534487 -51.129534)">
    <path
      d="M122.986,88.249C122.986,68.283 99.859,59.678 70.336,59.678C52.378,59.678 32.072,63.002 13.214,68.95L13.214,107.993C41.005,87.752 71.882,79.087 91.771,79.087C104.277,79.087 112.763,82.577 112.763,88.828C112.763,114.587 0.992,110.505 0.992,166.164C0.992,187.498 15.662,199.721 36.301,199.721C67.519,199.721 91.132,169.383 108.797,132.402L112.376,133.688C103.072,156.287 83.819,181.066 80.069,196.995L120.26,196.995L120.26,114.586L110.977,114.586C97.503,143.864 77.759,170.843 57.258,170.843C47.899,170.843 41.945,165.165 41.945,157.964C41.945,127.147 122.986,120.977 122.986,88.249Z"
      fill="black"
      fill-rule="nonzero"
    />
  </g>
</svg>
